Coordinates
nRows=7
nColumns=24

# SIMM Motion File Header:
name Coordinates
datacolumns 24
datarows 7
otherdata 1
range 0.40832999999999997000 0.41432999999999998000
endheader
time	pelvis_tx	pelvis_ty	pelvis_tz	pelvis_tilt	pelvis_list	pelvis_rotation	hip_flexion_r	hip_adduction_r	hip_rotation_r	knee_angle_r	ankle_angle_r	subtalar_angle_r	mtp_angle_r	hip_flexion_l	hip_adduction_l	hip_rotation_l	knee_angle_l	ankle_angle_l	subtalar_angle_l	mtp_angle_l	lumbar_extension	lumbar_bending	lumbar_rotation
      0.40832999999999997000	      0.33462697865226160000	      0.88340111338605454000	     -0.22655679481034482000	      2.70190394915503070000	     -4.05431432022109030000	      0.75131151897316362000	     -7.99585018150332690000	      7.20449161976498860000	      4.63770102897380100000	    -10.93503718276917200000	     16.26483202831704800000	      0.00000000000002377157	     -0.00000000000006063737	     25.92554310746678700000	     -7.34878613169056290000	      9.74334743102410530000	    -26.26059301388291400000	      3.16093792448782600000	     -0.00000000000001578379	     -0.00000000000003453613	    -16.62803045648296100000	      5.03793176252674350000	     10.84479522321803700000
      0.40932999999999997000	      0.33589476934259649000	      0.88321359867636495000	     -0.22658382592499851000	      2.70425671587668680000	     -4.05085269689417960000	      0.73285581066816186000	     -8.11755538007787970000	      7.19828494191180650000	      4.63889939068191290000	    -10.88875353042191200000	     16.30899280226097800000	      0.00000000000002388793	     -0.00000000000006092815	     25.92583167767742600000	     -7.33251077274071060000	      9.75604028108098480000	    -25.95560382708789900000	      3.06340791905391050000	     -0.00000000000001600051	     -0.00000000000003448333	    -16.61415727041783400000	      5.02535670103176280000	     10.92416966141495700000
      0.41032999999999997000	      0.33716401907341204000	      0.88302557539380200000	     -0.22661039386528861000	      2.70697317740744300000	     -4.04715031831905580000	      0.71389996119544641000	     -8.23959132649411430000	      7.19175240063526730000	      4.64057808552896220000	    -10.84276941664173000000	     16.35275860437131400000	      0.00000000000002400559	     -0.00000000000006121249	     25.92528205463601100000	     -7.31632578950538020000	      9.76770206225912220000	    -25.65174105791384900000	      2.96701719672978030000	     -0.00000000000001622220	     -0.00000000000003441792	    -16.60050269437238100000	      5.01228395334825820000	     11.00430087207639800000
      0.41132999999999997000	      0.33843462675966568000	      0.88283707011295620000	     -0.22663653465515310000	      2.71001577704741740000	     -4.04323466146535800000	      0.69448412847394636000	     -8.36189686850435980000	      7.18492148249340180000	      4.64271709366121770000	    -10.79710563512623800000	     16.39609012854775100000	      0.00000000000002412398	     -0.00000000000006150711	     25.92399278107913600000	     -7.30022701053881210000	      9.77838470941214770000	    -25.34905338054449000000	      2.87179254923296100000	     -0.00000000000001644304	     -0.00000000000003435149	    -16.58703908600747600000	      4.99876162343365580000	     11.08510717081381700000
      0.41232999999999997000	      0.33970930831223356000	      0.88264711883726210000	     -0.22666139399374072000	      2.71403679101504420000	     -4.03867916977594010000	      0.67368834600609773000	     -8.48501119729663600000	      7.17719543375555610000	      4.64623704164908700000	    -10.75240285040481000000	     16.43811881892249700000	      0.00000000000002424457	     -0.00000000000006183256	     25.92048455597589300000	     -7.28438684437852760000	      9.78612995448985150000	    -25.04989097858920000000	      2.78006612621806330000	     -0.00000000000001666134	     -0.00000000000003428202	    -16.57414838068421800000	      4.98389054682576750000	     11.16793873377917400000
      0.41332999999999998000	      0.34098398986480144000	      0.88245716756156800000	     -0.22668625333232836000	      2.71805780498267110000	     -4.03412367808652220000	      0.65289256353824920000	     -8.60812552608891220000	      7.16946938501771050000	      4.64975698963695640000	    -10.70770006568338100000	     16.48014750929724300000	      0.00000000000002436515	     -0.00000000000006215801	     25.91697633087265400000	     -7.26854667821824310000	      9.79387519956755530000	    -24.75072857663391100000	      2.68833970320316550000	     -0.00000000000001687964	     -0.00000000000003421255	    -16.56125767536095900000	      4.96901947021788000000	     11.25077029674452900000
      0.41432999999999998000	      0.34226369872893780000	      0.88226520196233227000	     -0.22670971223754163000	      2.72311663676770710000	     -4.02885944174143610000	      0.63056014659589954000	     -8.73197459126218510000	      7.16072483527596940000	      4.65485846844686260000	    -10.66431805451016700000	     16.52104689729852200000	      0.00000000000002449734	     -0.00000000000006252714	     25.91108610107182000000	     -7.25298916438662560000	      9.79815789905658900000	    -24.45644987325374900000	      2.60091852167743950000	     -0.00000000000001710197	     -0.00000000000003411461	    -16.54887120668182400000	      4.95261813330706780000	     11.33585264744952400000
